# xmcd CD database file generated by Grip 2.95
# 
# Track frame offsets:
#       150
#       21452
#       28262
#       43082
#       50822
#       74337
#       88275
#       108857
#       136467
#       154610
#       175772
#       193250
# 
# Disc length: 2992 seconds
# 
# Revision: 3
# Processed by: cddbd v1.4PL0 Copyright (c) Steve Scherf et al.
# Submitted via: Grip 2.95
# 
DISCID=b00bae0c
DTITLE=Morning 40 Federation - You My Brother
DYEAR=1900
DGENRE=
TTITLE0=Frenchy Got Bald Head
TTITLE1=Itsy Bitsy Brother
TTITLE2=Gotta Nickel
TTITLE3=Hollywood, CA
TTITLE4=Stinky
TTITLE5=Chili Cheese Fries
TTITLE6=Ninth Ward
TTITLE7=That Ain't Professional
TTITLE8=Mischievous
TTITLE9=Sorry Mom
TTITLE10=Your My Brother
TTITLE11=Bottom Shelf Blues
EXTD=
EXTT0=
EXTT1=
EXTT2=
EXTT3=
EXTT4=
EXTT5=
EXTT6=
EXTT7=
EXTT8=
EXTT9=
EXTT10=
EXTT11=
PLAYORDER=
